<?xml version="1.0" encoding="utf-8"?>
<!-- Generator: Adobe Illustrator 27.5.0, SVG Export Plug-In . SVG Version: 6.00 Build 0)  -->
<svg version="1.1" id="Layer_1" xmlns="http://www.w3.org/2000/svg" xmlns:xlink="http://www.w3.org/1999/xlink" x="0px" y="0px"
	 viewBox="0 0 1500 1500" style="enable-background:new 0 0 1500 1500;" xml:space="preserve">
<g>
	<g>
		
			<linearGradient id="SVGID_1_" gradientUnits="userSpaceOnUse" x1="-5220.9526" y1="-3560.6665" x2="-4173.2529" y2="-2512.9666" gradientTransform="matrix(-1 0 0 -1 -3947.103 -2286.8164)">
			<stop  offset="0.0011" style="stop-color:#FFE185"/>
			<stop  offset="0.2094" style="stop-color:#FFBB36"/>
			<stop  offset="0.3765" style="stop-color:#FF5176"/>
			<stop  offset="0.5238" style="stop-color:#F63395"/>
			<stop  offset="0.7394" style="stop-color:#A436D2"/>
			<stop  offset="1" style="stop-color:#5F4EED"/>
		</linearGradient>
		<path style="fill:url(#SVGID_1_);" d="M289.282,200h921.436c49.309,0,89.282,39.973,89.282,89.282v921.436
			c0,49.309-39.973,89.282-89.282,89.282H289.282c-49.309,0-89.282-39.973-89.282-89.282V289.282
			C200,239.973,239.973,200,289.282,200z"/>
	</g>
	<g>
		<g>
			<path style="fill:#FFFFFF;" d="M981.522,468.884c-28.312,0-51.267,22.955-51.267,51.267c0,28.317,22.955,51.272,51.267,51.272
				c28.317,0,51.272-22.955,51.272-51.272C1032.794,491.839,1009.839,468.884,981.522,468.884z"/>
			<path style="fill:#FFFFFF;" d="M753.591,534.633c-118.756,0-215.372,96.611-215.372,215.367
				c0,118.751,96.617,215.367,215.372,215.367c118.75,0,215.367-96.616,215.367-215.367
				C968.958,631.244,872.342,534.633,753.591,534.633z M753.591,887.956c-76.074,0-137.962-61.883-137.962-137.956
				s61.888-137.956,137.962-137.956c76.069,0,137.951,61.883,137.951,137.956S829.66,887.956,753.591,887.956z"/>
			<path style="fill:#FFFFFF;" d="M924.568,1187.264H575.417c-144.843,0-262.68-117.837-262.68-262.681V575.417
				c0-144.848,117.837-262.68,262.68-262.68h349.151c144.843,0,262.696,117.832,262.696,262.68v349.166
				C1187.264,1069.426,1069.411,1187.264,924.568,1187.264z M575.417,395.014c-99.483,0-180.409,80.92-180.409,180.403v349.166
				c0,99.483,80.925,180.409,180.409,180.409h349.151c99.483,0,180.419-80.925,180.419-180.409V575.417
				c0-99.483-80.935-180.403-180.419-180.403H575.417z"/>
		</g>
	</g>
</g>
</svg>
